<mxfile host="app.diagrams.net" modified="2023-04-09T00:17:50.043Z" agent="Mozilla/5.0 (Windows NT 10.0; Win64; x64) AppleWebKit/537.36 (KHTML, like Gecko) Chrome/111.0.0.0 Safari/537.36" etag="VV5U8O-UWhzCwDmNsDz4" version="21.1.5" type="github">
  <diagram id="C5RBs43oDa-KdzZeNtuy" name="Page-1">
    <mxGraphModel dx="1434" dy="707" grid="1" gridSize="10" guides="1" tooltips="1" connect="1" arrows="1" fold="1" page="1" pageScale="1" pageWidth="827" pageHeight="1169" math="0" shadow="0">
      <root>
        <mxCell id="WIyWlLk6GJQsqaUBKTNV-0" />
        <mxCell id="WIyWlLk6GJQsqaUBKTNV-1" parent="WIyWlLk6GJQsqaUBKTNV-0" />
        <mxCell id="DvmWg05eOIDumtDc3zBH-2" value="" style="group" vertex="1" connectable="0" parent="WIyWlLk6GJQsqaUBKTNV-1">
          <mxGeometry x="60" y="80" width="180" height="180" as="geometry" />
        </mxCell>
        <mxCell id="DvmWg05eOIDumtDc3zBH-0" value="" style="whiteSpace=wrap;html=1;aspect=fixed;movable=1;resizable=1;rotatable=1;deletable=1;editable=1;locked=0;connectable=1;container=1;" vertex="1" parent="DvmWg05eOIDumtDc3zBH-2">
          <mxGeometry width="180" height="180" as="geometry" />
        </mxCell>
        <mxCell id="DvmWg05eOIDumtDc3zBH-17" value="&lt;ul style=&quot;border-color: var(--border-color);&quot;&gt;&lt;li&gt;store_id&lt;/li&gt;&lt;li&gt;store_name&lt;/li&gt;&lt;li&gt;store_street_number&lt;/li&gt;&lt;li style=&quot;border-color: var(--border-color);&quot;&gt;store_street&lt;/li&gt;&lt;li style=&quot;border-color: var(--border-color);&quot;&gt;store_city&lt;/li&gt;&lt;li style=&quot;border-color: var(--border-color);&quot;&gt;store_state&lt;/li&gt;&lt;li style=&quot;border-color: var(--border-color);&quot;&gt;store_zipcode&lt;/li&gt;&lt;/ul&gt;&lt;div&gt;&lt;/div&gt;" style="text;html=1;align=left;verticalAlign=middle;resizable=0;points=[];autosize=1;strokeColor=none;fillColor=none;" vertex="1" parent="DvmWg05eOIDumtDc3zBH-0">
          <mxGeometry y="20" width="170" height="140" as="geometry" />
        </mxCell>
        <mxCell id="DvmWg05eOIDumtDc3zBH-1" value="STORE" style="text;html=1;align=center;verticalAlign=middle;resizable=1;points=[];autosize=1;strokeColor=none;fillColor=none;movable=1;rotatable=1;deletable=1;editable=1;locked=0;connectable=1;" vertex="1" parent="DvmWg05eOIDumtDc3zBH-2">
          <mxGeometry x="60" y="10" width="60" height="30" as="geometry" />
        </mxCell>
        <mxCell id="DvmWg05eOIDumtDc3zBH-3" value="" style="group" vertex="1" connectable="0" parent="WIyWlLk6GJQsqaUBKTNV-1">
          <mxGeometry x="330" y="80" width="190" height="180" as="geometry" />
        </mxCell>
        <mxCell id="DvmWg05eOIDumtDc3zBH-4" value="" style="whiteSpace=wrap;html=1;aspect=fixed;movable=1;resizable=1;rotatable=1;deletable=1;editable=1;locked=0;connectable=1;container=1;" vertex="1" parent="DvmWg05eOIDumtDc3zBH-3">
          <mxGeometry width="190" height="180" as="geometry" />
        </mxCell>
        <mxCell id="DvmWg05eOIDumtDc3zBH-18" value="&lt;ul&gt;&lt;li&gt;product_id&lt;/li&gt;&lt;li&gt;product_name&lt;/li&gt;&lt;li&gt;product_price&lt;/li&gt;&lt;li&gt;product_type&lt;/li&gt;&lt;li&gt;product_manufacturer&lt;/li&gt;&lt;/ul&gt;" style="text;html=1;align=left;verticalAlign=middle;resizable=0;points=[];autosize=1;strokeColor=none;fillColor=none;" vertex="1" parent="DvmWg05eOIDumtDc3zBH-4">
          <mxGeometry x="10" y="20" width="180" height="110" as="geometry" />
        </mxCell>
        <mxCell id="DvmWg05eOIDumtDc3zBH-5" value="PRODUCT" style="text;html=1;align=center;verticalAlign=middle;resizable=1;points=[];autosize=1;strokeColor=none;fillColor=none;movable=1;rotatable=1;deletable=1;editable=1;locked=0;connectable=1;" vertex="1" parent="DvmWg05eOIDumtDc3zBH-3">
          <mxGeometry x="50" y="10" width="80" height="30" as="geometry" />
        </mxCell>
        <mxCell id="DvmWg05eOIDumtDc3zBH-7" value="" style="group" vertex="1" connectable="0" parent="WIyWlLk6GJQsqaUBKTNV-1">
          <mxGeometry x="600" y="80" width="200" height="190" as="geometry" />
        </mxCell>
        <mxCell id="DvmWg05eOIDumtDc3zBH-8" value="" style="whiteSpace=wrap;html=1;aspect=fixed;movable=1;resizable=1;rotatable=1;deletable=1;editable=1;locked=0;connectable=1;container=1;" vertex="1" parent="DvmWg05eOIDumtDc3zBH-7">
          <mxGeometry width="200" height="190" as="geometry" />
        </mxCell>
        <mxCell id="DvmWg05eOIDumtDc3zBH-19" value="&lt;ul&gt;&lt;li&gt;customer_id&lt;/li&gt;&lt;li&gt;customer_first_name&lt;/li&gt;&lt;li&gt;customer_last_name&lt;/li&gt;&lt;li&gt;customer_street number&lt;/li&gt;&lt;li&gt;customer_street&lt;/li&gt;&lt;li&gt;customer_city&lt;/li&gt;&lt;li&gt;customer_state&lt;/li&gt;&lt;li&gt;customer_zipcode&lt;/li&gt;&lt;li&gt;customer_phone&lt;/li&gt;&lt;li&gt;customer_email&lt;/li&gt;&lt;/ul&gt;" style="text;html=1;align=left;verticalAlign=middle;resizable=0;points=[];autosize=1;strokeColor=none;fillColor=none;" vertex="1" parent="DvmWg05eOIDumtDc3zBH-8">
          <mxGeometry x="10" y="20" width="190" height="180" as="geometry" />
        </mxCell>
        <mxCell id="DvmWg05eOIDumtDc3zBH-9" value="CUSTOMER" style="text;html=1;align=center;verticalAlign=middle;resizable=1;points=[];autosize=1;strokeColor=none;fillColor=none;movable=1;rotatable=1;deletable=1;editable=1;locked=0;connectable=1;" vertex="1" parent="DvmWg05eOIDumtDc3zBH-7">
          <mxGeometry x="45" y="10" width="90" height="30" as="geometry" />
        </mxCell>
        <mxCell id="DvmWg05eOIDumtDc3zBH-10" value="" style="group" vertex="1" connectable="0" parent="WIyWlLk6GJQsqaUBKTNV-1">
          <mxGeometry x="120" y="380" width="180" height="180" as="geometry" />
        </mxCell>
        <mxCell id="DvmWg05eOIDumtDc3zBH-11" value="" style="whiteSpace=wrap;html=1;aspect=fixed;movable=1;resizable=1;rotatable=1;deletable=1;editable=1;locked=0;connectable=1;container=1;" vertex="1" parent="DvmWg05eOIDumtDc3zBH-10">
          <mxGeometry width="180" height="180" as="geometry" />
        </mxCell>
        <mxCell id="DvmWg05eOIDumtDc3zBH-12" value="SALE" style="text;html=1;align=center;verticalAlign=middle;resizable=1;points=[];autosize=1;strokeColor=none;fillColor=none;movable=1;rotatable=1;deletable=1;editable=1;locked=0;connectable=1;" vertex="1" parent="DvmWg05eOIDumtDc3zBH-10">
          <mxGeometry x="65" y="10" width="50" height="30" as="geometry" />
        </mxCell>
        <mxCell id="DvmWg05eOIDumtDc3zBH-14" value="" style="group" vertex="1" connectable="0" parent="WIyWlLk6GJQsqaUBKTNV-1">
          <mxGeometry x="520" y="390" width="180" height="180" as="geometry" />
        </mxCell>
        <mxCell id="DvmWg05eOIDumtDc3zBH-15" value="" style="whiteSpace=wrap;html=1;aspect=fixed;movable=1;resizable=1;rotatable=1;deletable=1;editable=1;locked=0;connectable=1;container=1;" vertex="1" parent="DvmWg05eOIDumtDc3zBH-14">
          <mxGeometry width="180" height="180" as="geometry" />
        </mxCell>
        <mxCell id="DvmWg05eOIDumtDc3zBH-16" value="INVENTROY" style="text;html=1;align=center;verticalAlign=middle;resizable=1;points=[];autosize=1;strokeColor=none;fillColor=none;movable=1;rotatable=1;deletable=1;editable=1;locked=0;connectable=1;" vertex="1" parent="DvmWg05eOIDumtDc3zBH-14">
          <mxGeometry x="45" y="10" width="90" height="30" as="geometry" />
        </mxCell>
      </root>
    </mxGraphModel>
  </diagram>
</mxfile>
